<svg width="48" height="48" viewBox="0 0 48 48" fill="none" xmlns="http://www.w3.org/2000/svg">
<path d="M37 19V14.2C37 13.0799 37 12.5198 36.782 12.092C36.5903 11.7157 36.2843 11.4097 35.908 11.218C35.4802 11 34.9201 11 33.8 11H15.2C14.0799 11 13.5198 11 13.092 11.218C12.7157 11.4097 12.4097 11.7157 12.218 12.092C12 12.5198 12 13.0799 12 14.2V27.8C12 28.9201 12 29.4802 12.218 29.908C12.4097 30.2843 12.7157 30.5903 13.092 30.782C13.5198 31 14.0799 31 15.2 31H28.0714" stroke="#222222" stroke-linecap="round"/>
<path d="M18 25H26" stroke="#222222" stroke-linecap="round"/>
<path d="M18 17H32" stroke="#222222" stroke-linecap="round"/>
<circle cx="35" cy="27" r="4.5" stroke="#222222"/>
<path d="M39 37C39 37 38 35 35 35C32 35 31 37 31 37" stroke="#222222" stroke-linecap="round"/>
</svg>
