<svg width="34" height="33" viewBox="0 0 34 33" fill="none" xmlns="http://www.w3.org/2000/svg">
<path d="M17 16.5C20.912 16.5 24.0833 13.422 24.0833 9.625C24.0833 5.82804 20.912 2.75 17 2.75C13.088 2.75 9.91667 5.82804 9.91667 9.625C9.91667 13.422 13.088 16.5 17 16.5Z" stroke="white" stroke-width="0.8" stroke-linecap="round" stroke-linejoin="round"/>
<path d="M27.2142 21.6425L22.1991 26.5101C22.0008 26.7026 21.8166 27.06 21.7741 27.3213L21.505 29.1775C21.4058 29.8512 21.8875 30.3188 22.5816 30.2225L24.4941 29.9613C24.7633 29.92 25.1458 29.7413 25.33 29.5488L30.3449 24.6813C31.2091 23.8426 31.6199 22.8663 30.3449 21.6288C29.0841 20.405 28.0783 20.8038 27.2142 21.6425Z" stroke="white" stroke-width="0.8" stroke-miterlimit="10" stroke-linecap="round" stroke-linejoin="round"/>
<path d="M26.4917 22.3438C26.9167 23.8288 28.1066 24.9837 29.6366 25.3962" stroke="white" stroke-width="0.8" stroke-miterlimit="10" stroke-linecap="round" stroke-linejoin="round"/>
<path d="M4.8308 30.25C4.8308 24.9288 10.285 20.625 17 20.625C18.4733 20.625 19.89 20.8312 21.2075 21.2162" stroke="white" stroke-width="0.8" stroke-linecap="round" stroke-linejoin="round"/>
</svg>
