<svg width="25" height="24" viewBox="0 0 25 24" fill="none" xmlns="http://www.w3.org/2000/svg">
<path d="M13.2096 0.980897C13.0275 0.796149 12.77 0.690918 12.5 0.690918C12.23 0.690918 11.9725 0.796149 11.7904 0.980896L6.66215 6.18195C6.30382 6.54537 6.33105 7.10934 6.72298 7.44161C7.1149 7.77388 7.72311 7.74863 8.08144 7.38521L11.5385 3.87908V17.0371C11.5385 17.5295 11.969 17.9287 12.5 17.9287C13.031 17.9287 13.4615 17.5295 13.4615 17.0371V3.87908L16.9186 7.38521C17.2769 7.74863 17.8851 7.77388 18.277 7.44161C18.6689 7.10934 18.6962 6.54537 18.3378 6.18195L13.2096 0.980897Z" fill="#404446" fill-opacity="0.8"/>
<path d="M1.92308 15.8483C1.92308 15.3558 1.49258 14.9567 0.96154 14.9567C0.430497 14.9567 6.79513e-07 15.3558 6.79513e-07 15.8483V15.9135C-2.52257e-05 17.5393 -4.61076e-05 18.8498 0.14939 19.8804C0.304539 20.9505 0.636454 21.8514 1.40814 22.567C2.17983 23.2826 3.15146 23.5903 4.30545 23.7342C5.41695 23.8728 6.83018 23.8728 8.5835 23.8727H16.4165C18.1698 23.8728 19.5831 23.8728 20.6946 23.7342C21.8485 23.5903 22.8202 23.2826 23.5919 22.567C24.3635 21.8514 24.6955 20.9505 24.8506 19.8804C25 18.8498 25 17.5393 25 15.9135V15.8483C25 15.3558 24.5695 14.9567 24.0385 14.9567C23.5074 14.9567 23.0769 15.3558 23.0769 15.8483C23.0769 17.5547 23.0749 18.7448 22.9447 19.6428C22.8182 20.5151 22.5869 20.9771 22.232 21.3061C21.8772 21.6351 21.379 21.8496 20.4383 21.9669C19.4699 22.0876 18.1864 22.0895 16.3462 22.0895H8.65385C6.81357 22.0895 5.53009 22.0876 4.56169 21.9669C3.62096 21.8496 3.12279 21.6351 2.76796 21.3061C2.41314 20.9771 2.1818 20.5151 2.05532 19.6428C1.92512 18.7448 1.92308 17.5547 1.92308 15.8483Z" fill="#404446" fill-opacity="0.8"/>
</svg>
