<svg width="150" height="46" viewBox="0 0 150 46" fill="none" xmlns="http://www.w3.org/2000/svg">
<rect width="46" height="46" rx="12" fill="#12153A"/>
<path d="M13.1056 26.096L13.681 28.2435C14.3527 30.7504 14.6886 32.0039 15.45 32.8168C16.0512 33.4587 16.8292 33.9079 17.6857 34.1076C18.7705 34.3605 20.0239 34.0247 22.5308 33.353C25.0377 32.6812 26.2912 32.3454 27.1041 31.584C27.1716 31.5208 27.2369 31.4556 27.3001 31.3886C26.9286 31.3575 26.5538 31.2977 26.173 31.222C25.3992 31.0681 24.4797 30.8217 23.3923 30.5303L23.2735 30.4985L23.246 30.4911C22.0628 30.1741 21.0743 29.9087 20.2849 29.6235C19.4548 29.3237 18.7006 28.954 18.0602 28.3541C17.1775 27.5275 16.5599 26.4577 16.2853 25.28C16.086 24.4254 16.143 23.5874 16.2984 22.7186C16.4472 21.8861 16.7146 20.8883 17.0349 19.6929L17.035 19.6929L17.629 17.4758L17.6499 17.3978C15.5149 17.973 14.3911 18.3132 13.6417 19.0151C12.9998 19.6163 12.5506 20.3944 12.3509 21.2509C12.098 22.3356 12.4338 23.5891 13.1056 26.096Z" fill="#448AFF"/>
<path fill-rule="evenodd" clip-rule="evenodd" d="M33.1986 21.6486L32.6232 23.7962C31.9514 26.3031 31.6156 27.5565 30.8542 28.3695C30.253 29.0114 29.4749 29.4606 28.6184 29.6603C28.5114 29.6852 28.4028 29.7044 28.2914 29.7182C27.2742 29.8437 26.0329 29.5111 23.7734 28.9056C21.2665 28.2339 20.013 27.898 19.2001 27.1366C18.5582 26.5354 18.109 25.7574 17.9093 24.9009C17.6563 23.8162 17.9922 22.5627 18.6639 20.0558L19.2394 17.9082C19.3359 17.5478 19.4256 17.213 19.5106 16.902C20.0165 15.0499 20.3564 14.031 21.0083 13.3349C21.6095 12.6931 22.3876 12.2439 23.2441 12.0441C24.3288 11.7912 25.5823 12.1271 28.0892 12.7988C30.5961 13.4705 31.8495 13.8064 32.6625 14.5678C33.3043 15.169 33.7535 15.947 33.9533 16.8035C34.2062 17.8883 33.8703 19.1417 33.1986 21.6486ZM22.33 20.6375C22.4492 20.1927 22.9064 19.9288 23.3511 20.048L28.7201 21.4866C29.1649 21.6057 29.4288 22.0629 29.3096 22.5077C29.1904 22.9525 28.7333 23.2164 28.2885 23.0972L22.9196 21.6586C22.4748 21.5395 22.2108 21.0823 22.33 20.6375ZM21.4664 23.8585C21.5856 23.4137 22.0428 23.1498 22.4875 23.269L25.7089 24.1321C26.1537 24.2513 26.4176 24.7085 26.2984 25.1533C26.1793 25.598 25.7221 25.862 25.2773 25.7428L22.056 24.8796C21.6112 24.7605 21.3472 24.3033 21.4664 23.8585Z" fill="#448AFF"/>
<path d="M71.872 19.432C71.872 20.328 71.656 21.168 71.224 21.952C70.808 22.736 70.144 23.368 69.232 23.848C68.336 24.328 67.2 24.568 65.824 24.568H63.016V31H59.656V14.248H65.824C67.12 14.248 68.224 14.472 69.136 14.92C70.048 15.368 70.728 15.984 71.176 16.768C71.64 17.552 71.872 18.44 71.872 19.432ZM65.68 21.856C66.608 21.856 67.296 21.648 67.744 21.232C68.192 20.8 68.416 20.2 68.416 19.432C68.416 17.8 67.504 16.984 65.68 16.984H63.016V21.856H65.68ZM73.3936 24.304C73.3936 22.96 73.6576 21.768 74.1856 20.728C74.7296 19.688 75.4576 18.888 76.3696 18.328C77.2976 17.768 78.3296 17.488 79.4656 17.488C80.4576 17.488 81.3216 17.688 82.0576 18.088C82.8096 18.488 83.4096 18.992 83.8576 19.6V17.704H87.2416V31H83.8576V29.056C83.4256 29.68 82.8256 30.2 82.0576 30.616C81.3056 31.016 80.4336 31.216 79.4416 31.216C78.3216 31.216 77.2976 30.928 76.3696 30.352C75.4576 29.776 74.7296 28.968 74.1856 27.928C73.6576 26.872 73.3936 25.664 73.3936 24.304ZM83.8576 24.352C83.8576 23.536 83.6976 22.84 83.3776 22.264C83.0576 21.672 82.6256 21.224 82.0816 20.92C81.5376 20.6 80.9536 20.44 80.3296 20.44C79.7056 20.44 79.1296 20.592 78.6016 20.896C78.0736 21.2 77.6416 21.648 77.3056 22.24C76.9856 22.816 76.8256 23.504 76.8256 24.304C76.8256 25.104 76.9856 25.808 77.3056 26.416C77.6416 27.008 78.0736 27.464 78.6016 27.784C79.1456 28.104 79.7216 28.264 80.3296 28.264C80.9536 28.264 81.5376 28.112 82.0816 27.808C82.6256 27.488 83.0576 27.04 83.3776 26.464C83.6976 25.872 83.8576 25.168 83.8576 24.352ZM103.243 17.704L95.0112 37.288H91.4352L94.3152 30.664L88.9872 17.704H92.7552L96.1872 26.992L99.6672 17.704H103.243ZM114.558 22.408C115.502 22.584 116.278 23.056 116.886 23.824C117.494 24.592 117.798 25.472 117.798 26.464C117.798 27.36 117.574 28.152 117.126 28.84C116.694 29.512 116.062 30.04 115.23 30.424C114.398 30.808 113.414 31 112.278 31H105.054V14.248H111.966C113.102 14.248 114.078 14.432 114.894 14.8C115.726 15.168 116.35 15.68 116.766 16.336C117.198 16.992 117.414 17.736 117.414 18.568C117.414 19.544 117.15 20.36 116.622 21.016C116.11 21.672 115.422 22.136 114.558 22.408ZM108.414 21.16H111.486C112.286 21.16 112.902 20.984 113.334 20.632C113.766 20.264 113.982 19.744 113.982 19.072C113.982 18.4 113.766 17.88 113.334 17.512C112.902 17.144 112.286 16.96 111.486 16.96H108.414V21.16ZM111.798 28.264C112.614 28.264 113.246 28.072 113.694 27.688C114.158 27.304 114.39 26.76 114.39 26.056C114.39 25.336 114.15 24.776 113.67 24.376C113.19 23.96 112.542 23.752 111.726 23.752H108.414V28.264H111.798ZM133.028 17.704V31H129.644V29.32C129.212 29.896 128.644 30.352 127.94 30.688C127.252 31.008 126.5 31.168 125.684 31.168C124.644 31.168 123.724 30.952 122.924 30.52C122.124 30.072 121.492 29.424 121.028 28.576C120.58 27.712 120.356 26.688 120.356 25.504V17.704H123.716V25.024C123.716 26.08 123.98 26.896 124.508 27.472C125.036 28.032 125.756 28.312 126.668 28.312C127.596 28.312 128.324 28.032 128.852 27.472C129.38 26.896 129.644 26.08 129.644 25.024V17.704H133.028ZM148.704 24.064C148.704 24.544 148.672 24.976 148.608 25.36H138.888C138.968 26.32 139.304 27.072 139.896 27.616C140.488 28.16 141.216 28.432 142.08 28.432C143.328 28.432 144.216 27.896 144.744 26.824H148.368C147.984 28.104 147.248 29.16 146.16 29.992C145.072 30.808 143.736 31.216 142.152 31.216C140.872 31.216 139.72 30.936 138.696 30.376C137.688 29.8 136.896 28.992 136.32 27.952C135.76 26.912 135.479 25.712 135.479 24.352C135.479 22.976 135.76 21.768 136.32 20.728C136.88 19.688 137.664 18.888 138.672 18.328C139.68 17.768 140.84 17.488 142.152 17.488C143.416 17.488 144.544 17.76 145.536 18.304C146.544 18.848 147.32 19.624 147.864 20.632C148.424 21.624 148.704 22.768 148.704 24.064ZM145.224 23.104C145.208 22.24 144.896 21.552 144.288 21.04C143.68 20.512 142.936 20.248 142.056 20.248C141.224 20.248 140.52 20.504 139.944 21.016C139.384 21.512 139.04 22.208 138.912 23.104H145.224Z" fill="#12153A"/>
</svg>
