<svg width="124" height="124" viewBox="0 0 124 124" fill="none" xmlns="http://www.w3.org/2000/svg">
<rect x="0.5" y="0.5" width="123" height="123" rx="61.5" fill="#FDFDFD"/>
<rect x="0.5" y="0.5" width="123" height="123" rx="61.5" stroke="#EDF1F3"/>
<path fill-rule="evenodd" clip-rule="evenodd" d="M54.6507 45.8304C53.9725 45.2217 52.9505 45.2217 52.2724 45.8304C50.5921 47.3385 48.0972 47.4041 46.3462 46.027V77.973C48.0972 76.5959 50.5921 76.6615 52.2724 78.1696C52.9505 78.7783 53.9725 78.7783 54.6507 78.1696C56.4073 76.593 59.0543 76.593 60.8108 78.1696C61.489 78.7783 62.511 78.7783 63.1892 78.1696C64.9457 76.593 67.5927 76.593 69.3493 78.1696C70.0275 78.7783 71.0495 78.7783 71.7276 78.1696C73.4079 76.6615 75.9028 76.5959 77.6538 77.973V46.027C75.9028 47.4041 73.4079 47.3385 71.7276 45.8304C71.0495 45.2217 70.0275 45.2217 69.3493 45.8304C67.5927 47.407 64.9457 47.407 63.1892 45.8304C62.511 45.2217 61.489 45.2217 60.8108 45.8304C59.0543 47.407 56.4073 47.407 54.6507 45.8304ZM50.3815 43.6825C52.138 42.1058 54.785 42.1058 56.5416 43.6825C57.2198 44.2912 58.2418 44.2912 58.9199 43.6825C60.6765 42.1058 63.3235 42.1058 65.0801 43.6825C65.7582 44.2912 66.7802 44.2912 67.4584 43.6825C69.215 42.1058 71.862 42.1058 73.6185 43.6825C74.2967 44.2912 75.3187 44.2912 75.9969 43.6825C77.7417 42.1163 80.5 43.3671 80.5 45.7244V78.2756C80.5 80.6329 77.7417 81.8836 75.9969 80.3175C75.3187 79.7088 74.2967 79.7088 73.6185 80.3175C71.862 81.8941 69.215 81.8941 67.4584 80.3175C66.7802 79.7088 65.7582 79.7088 65.0801 80.3175C63.3235 81.8941 60.6765 81.8941 58.9199 80.3175C58.2418 79.7088 57.2198 79.7088 56.5416 80.3175C54.785 81.8941 52.138 81.8941 50.3815 80.3175C49.7033 79.7088 48.6813 79.7088 48.0031 80.3175C46.2583 81.8837 43.5 80.6329 43.5 78.2756V45.7244C43.5 43.3671 46.2583 42.1163 48.0031 43.6825C48.6813 44.2912 49.7033 44.2912 50.3815 43.6825ZM52.0385 55.2944C52.0385 54.5008 52.6756 53.8575 53.4615 53.8575H70.5385C71.3244 53.8575 71.9615 54.5008 71.9615 55.2944C71.9615 56.088 71.3244 56.7314 70.5385 56.7314H53.4615C52.6756 56.7314 52.0385 56.088 52.0385 55.2944ZM52.0385 62.0002C52.0385 61.2066 52.6756 60.5632 53.4615 60.5632H70.5385C71.3244 60.5632 71.9615 61.2066 71.9615 62.0002C71.9615 62.7938 71.3244 63.4371 70.5385 63.4371H53.4615C52.6756 63.4371 52.0385 62.7938 52.0385 62.0002ZM52.0385 68.7059C52.0385 67.9123 52.6756 67.269 53.4615 67.269H70.5385C71.3244 67.269 71.9615 67.9123 71.9615 68.7059C71.9615 69.4995 71.3244 70.1429 70.5385 70.1429H53.4615C52.6756 70.1429 52.0385 69.4995 52.0385 68.7059Z" fill="#5E5F6F"/>
</svg>
