<?xml version="1.0" encoding="utf-8"?>
<!-- Generator: Adobe Illustrator 25.4.1, SVG Export Plug-In . SVG Version: 6.00 Build 0)  -->
<svg version="1.1" id="Layer_1" xmlns="http://www.w3.org/2000/svg" xmlns:xlink="http://www.w3.org/1999/xlink" x="0px" y="0px"
	 viewBox="0 0 51.3 9" style="enable-background:new 0 0 51.3 9;" xml:space="preserve">
<style type="text/css">
	.st0{fill:#FFFFFF;}
</style>
<path class="st0" d="M7.5,3H6.2c0-0.3-0.1-0.5-0.3-0.8C5.8,2,5.6,1.8,5.4,1.7C5.2,1.5,5,1.4,4.7,1.4C4.5,1.3,4.2,1.2,3.9,1.2
	C3.5,1.2,3,1.4,2.6,1.6C2.2,1.9,1.8,2.3,1.6,2.7C1.4,3.3,1.3,3.9,1.3,4.5c0,0.6,0.1,1.2,0.3,1.8c0.2,0.5,0.5,0.8,0.9,1.1
	C3,7.7,3.5,7.8,3.9,7.8c0.3,0,0.5,0,0.8-0.1C5,7.6,5.2,7.5,5.4,7.4C5.8,7,6.1,6.5,6.2,6h1.3C7.5,6.4,7.3,6.8,7.1,7.2
	C6.9,7.5,6.7,7.8,6.3,8.1C6,8.4,5.6,8.6,5.2,8.7C4.8,8.9,4.4,9,3.9,9c-0.7,0-1.4-0.2-2-0.5C1.3,8.1,0.8,7.5,0.5,6.9
	C0.2,6.1,0,5.3,0,4.5c0-0.8,0.2-1.7,0.5-2.4c0.3-0.6,0.8-1.2,1.4-1.5C2.5,0.2,3.2,0,3.9,0c0.4,0,0.9,0.1,1.3,0.2
	C5.6,0.3,6,0.5,6.3,0.8C6.6,1,6.9,1.4,7.1,1.7C7.3,2.1,7.5,2.5,7.5,3z M16.7,4.5c0,0.8-0.2,1.7-0.5,2.4c-0.3,0.6-0.8,1.2-1.4,1.5
	c-0.6,0.4-1.3,0.5-2,0.5c-0.7,0-1.4-0.2-2-0.5c-0.6-0.4-1.1-0.9-1.4-1.6C9,6.1,8.8,5.3,8.8,4.5c0-0.8,0.2-1.7,0.5-2.4
	c0.3-0.6,0.8-1.2,1.4-1.5C11.3,0.2,12,0,12.7,0c1.4,0,2.8,0.8,3.4,2.1C16.5,2.8,16.7,3.6,16.7,4.5L16.7,4.5z M15.4,4.5
	c0-0.6-0.1-1.3-0.4-1.8c-0.2-0.5-0.5-0.8-0.9-1.1c-0.8-0.5-1.9-0.5-2.7,0c-0.4,0.3-0.7,0.7-0.9,1.1c-0.2,0.6-0.4,1.2-0.3,1.8
	c0,0.6,0.1,1.2,0.3,1.8c0.2,0.5,0.5,0.8,0.9,1.1c0.8,0.5,1.9,0.5,2.7,0c0.4-0.3,0.7-0.7,0.9-1.1C15.3,5.7,15.4,5.1,15.4,4.5
	L15.4,4.5z M25.4,0.2v8.7h-1.2l-4.4-6.4h-0.1v6.4h-1.3V0.1h1.2L24,6.5h0.1V0.1L25.4,0.2z M32.1,2.5c0-0.4-0.2-0.7-0.6-0.9
	c-0.4-0.2-0.8-0.3-1.2-0.3c-0.3,0-0.6,0-0.9,0.2c-0.2,0.1-0.5,0.3-0.6,0.5c-0.1,0.2-0.2,0.4-0.2,0.7c0,0.2,0,0.4,0.1,0.5
	c0.1,0.2,0.2,0.3,0.4,0.4c0.2,0.1,0.3,0.2,0.5,0.2c0.2,0.1,0.4,0.1,0.5,0.2L30.9,4c0.3,0.1,0.6,0.2,0.9,0.3c0.3,0.1,0.6,0.3,0.8,0.5
	c0.2,0.2,0.5,0.4,0.6,0.7c0.2,0.3,0.2,0.7,0.2,1c0,0.5-0.1,0.9-0.4,1.3c-0.3,0.4-0.6,0.7-1.1,0.9c-1.1,0.4-2.3,0.4-3.4,0
	c-0.5-0.2-0.9-0.5-1.2-0.9C27.1,7.4,27,6.9,27,6.4h1.3c0,0.3,0.1,0.6,0.3,0.8c0.2,0.2,0.4,0.4,0.7,0.5c0.3,0.1,0.6,0.2,0.9,0.2
	c0.3,0,0.7-0.1,1-0.2c0.3-0.1,0.5-0.3,0.7-0.5c0.2-0.2,0.3-0.5,0.3-0.8c0-0.2-0.1-0.5-0.2-0.6c-0.2-0.2-0.4-0.3-0.6-0.4
	c-0.3-0.1-0.6-0.2-0.8-0.3l-1-0.3c-0.6-0.1-1.2-0.4-1.7-0.8c-0.4-0.4-0.6-0.9-0.6-1.5c0-0.5,0.1-0.9,0.4-1.3
	c0.3-0.4,0.7-0.7,1.1-0.9c0.5-0.2,1-0.3,1.6-0.3c0.5,0,1.1,0.1,1.6,0.3c0.4,0.2,0.8,0.5,1.1,0.9c0.3,0.4,0.4,0.8,0.4,1.2L32.1,2.5z
	 M34.6,1.3V0.1h6.8v1.1h-2.7v7.6h-1.3V1.3L34.6,1.3z"/>
<path class="st0" d="M44.2,0.1v8.7h-1.3V0.1H44.2z M46.1,8.9V0.1h1.3v7.6h4v1.1L46.1,8.9z"/>
</svg>
